<svg width="131" height="42" fill="none" xmlns="http://www.w3.org/2000/svg"><path d="M.5.5H116c8.008 0 14.5 6.492 14.5 14.5v26.5H15C6.992 41.5.5 35.008.5 27V.5Z" fill="#000" stroke="#ACACAC"/><path d="M45.196 14.365c.396 0 .724-.164.985-.494.264-.332.396-.828.396-1.486 0-.402-.058-.747-.175-1.035-.22-.555-.622-.833-1.206-.833-.587 0-.99.293-1.206.88-.117.313-.175.712-.175 1.195 0 .389.058.72.175.992.22.521.622.781 1.206.781ZM43 9.92h.825v.669c.17-.23.355-.407.556-.532a1.792 1.792 0 0 1 1.008-.282c.572 0 1.057.22 1.456.658.4.436.599 1.06.599 1.873 0 1.098-.288 1.882-.863 2.352a1.95 1.95 0 0 1-1.272.447c-.38 0-.699-.083-.957-.25-.15-.093-.318-.255-.504-.484v2.574H43V9.92ZM48.076 9.896h.805v.87c.066-.169.228-.374.486-.616a1.255 1.255 0 0 1 .97-.362l.194.019v.893a1.252 1.252 0 0 0-.278-.023c-.428 0-.756.138-.985.414-.23.273-.344.588-.344.946v2.898h-.848V9.896ZM52.883 14.389c.562 0 .947-.212 1.154-.635.21-.427.316-.9.316-1.421 0-.47-.076-.853-.226-1.148-.24-.464-.65-.696-1.235-.696-.518 0-.895.197-1.131.592-.236.396-.353.873-.353 1.43 0 .537.117.984.353 1.342.236.357.61.536 1.121.536Zm.032-4.639c.65 0 1.2.217 1.65.65.45.432.674 1.069.674 1.91 0 .812-.198 1.483-.594 2.013-.396.53-1.01.795-1.843.795-.694 0-1.245-.234-1.654-.7-.408-.471-.612-1.102-.612-1.892 0-.847.215-1.521.645-2.023.43-.502 1.009-.753 1.735-.753ZM56.403 12.474c0 .54.115.991.344 1.355.23.364.597.546 1.103.546.392 0 .714-.168.966-.504.254-.338.381-.823.381-1.453 0-.637-.13-1.107-.39-1.412-.261-.307-.583-.46-.967-.46-.427 0-.774.162-1.041.489-.264.326-.396.806-.396 1.44Zm1.277-2.667c.386 0 .71.081.97.244.152.094.323.259.514.494V8h.816v6.935h-.764v-.701c-.198.31-.432.534-.702.672-.27.138-.58.207-.928.207-.563 0-1.05-.235-1.461-.705-.411-.474-.617-1.103-.617-1.887 0-.734.187-1.369.56-1.905.377-.54.915-.81 1.612-.81ZM61.7 9.896v3.345c0 .257.04.467.123.63.15.301.432.452.843.452.59 0 .993-.263 1.207-.79.116-.283.174-.67.174-1.162V9.896h.848v5.039h-.801l.01-.744a1.71 1.71 0 0 1-.41.485c-.324.263-.717.395-1.179.395-.72 0-1.21-.24-1.47-.72-.141-.257-.212-.6-.212-1.03V9.896h.867ZM67.784 9.75c.569 0 1.03.138 1.385.414.359.276.574.751.646 1.426h-.825a1.504 1.504 0 0 0-.344-.772c-.179-.207-.466-.31-.862-.31-.54 0-.927.263-1.16.79-.15.342-.225.764-.225 1.265 0 .505.106.93.32 1.275.214.346.55.518 1.009.518.351 0 .63-.107.834-.32.207-.216.35-.511.428-.884h.825c-.094.668-.33 1.157-.707 1.467-.377.308-.859.462-1.446.462-.66 0-1.186-.24-1.58-.72-.392-.483-.588-1.086-.588-1.807 0-.884.215-1.573.645-2.065.43-.493.98-.739 1.645-.739ZM72.379 9.783c.358 0 .705.085 1.041.254.337.166.593.383.769.65.17.253.282.55.339.889.05.232.075.602.075 1.11h-3.699c.016.511.137.922.363 1.232.226.308.576.462 1.05.462.444 0 .797-.146 1.061-.438.15-.17.258-.365.32-.588h.835a1.752 1.752 0 0 1-.222.62c-.123.227-.26.412-.415.556-.257.251-.576.42-.956.508-.204.05-.435.075-.693.075a2.13 2.13 0 0 1-1.597-.682c-.437-.458-.655-1.097-.655-1.92 0-.808.22-1.465.66-1.97.44-.505 1.014-.758 1.724-.758Zm1.352 2.23c-.034-.367-.114-.66-.24-.88-.232-.407-.62-.611-1.164-.611-.39 0-.716.14-.98.423-.264.28-.404.635-.42 1.068h2.804ZM75.8 12.474c0 .54.115.991.344 1.355.23.364.597.546 1.103.546.393 0 .715-.168.966-.504.255-.338.382-.823.382-1.453 0-.637-.13-1.107-.391-1.412-.26-.307-.583-.46-.966-.46-.427 0-.775.162-1.042.489-.263.326-.395.806-.395 1.44Zm1.278-2.667c.386 0 .71.081.97.244.151.094.322.259.514.494V8h.815v6.935h-.763v-.701c-.198.31-.432.534-.702.672-.27.138-.58.207-.929.207-.562 0-1.049-.235-1.46-.705-.412-.474-.618-1.103-.618-1.887 0-.734.187-1.369.561-1.905.377-.54.914-.81 1.612-.81ZM82.483 8h.825v2.508a1.857 1.857 0 0 1 1.503-.744c.629 0 1.137.217 1.527.65.393.43.59 1.064.59 1.905 0 .796-.194 1.458-.58 1.985-.387.527-.922.79-1.607.79-.384 0-.707-.092-.971-.277-.157-.11-.325-.285-.504-.527v.645h-.783V8Zm2.206 6.347c.458 0 .8-.182 1.027-.546.23-.364.344-.844.344-1.44 0-.53-.115-.969-.344-1.317-.226-.348-.56-.522-1.004-.522-.386 0-.725.142-1.017.428-.29.285-.434.756-.434 1.411 0 .474.06.858.179 1.153.223.555.64.833 1.249.833ZM90.688 9.896h.938c-.12.323-.385 1.06-.797 2.211-.307.866-.565 1.572-.772 2.117-.49 1.286-.836 2.07-1.037 2.353-.201.282-.547.423-1.037.423-.12 0-.212-.005-.278-.014a2.24 2.24 0 0 1-.236-.052v-.771c.148.04.255.065.32.075.067.01.125.014.175.014.157 0 .272-.027.344-.08a.672.672 0 0 0 .189-.188 23.906 23.906 0 0 0 .382-.903l-1.867-5.185h.962l1.352 4.102 1.362-4.102ZM94.275 8h.848v2.578c.201-.254.382-.433.542-.536.273-.179.614-.268 1.022-.268.733 0 1.229.255 1.49.767.141.279.212.666.212 1.162v3.232h-.872v-3.176c0-.37-.047-.641-.141-.814-.154-.276-.443-.414-.868-.414-.351 0-.67.12-.956.362-.286.242-.429.698-.429 1.37v2.672h-.848V8ZM100.109 9.896v3.345c0 .257.041.467.123.63.15.301.432.452.843.452.591 0 .993-.263 1.206-.79.117-.283.175-.67.175-1.162V9.896h.848v5.039h-.801l.009-.744a1.7 1.7 0 0 1-.41.485c-.323.263-.716.395-1.178.395-.719 0-1.21-.24-1.47-.72-.141-.257-.212-.6-.212-1.03V9.896h.867ZM104.247 9.896h.839v.715c.201-.248.383-.428.546-.541.28-.191.597-.287.952-.287.402 0 .726.099.971.296.138.113.264.28.377.5.188-.27.41-.47.664-.598.255-.132.541-.198.858-.198.679 0 1.14.245 1.385.734.132.263.198.618.198 1.063v3.355h-.881v-3.5c0-.336-.085-.567-.254-.692a.991.991 0 0 0-.613-.188c-.333 0-.62.111-.862.334-.239.222-.358.594-.358 1.115v2.93h-.863v-3.288c0-.342-.041-.591-.122-.748-.129-.235-.369-.353-.721-.353-.321 0-.613.124-.877.372-.261.248-.391.696-.391 1.345v2.673h-.848V9.896ZM112.55 13.594c0 .245.09.437.269.579a.997.997 0 0 0 .636.211c.299 0 .588-.069.867-.207.471-.229.707-.604.707-1.124v-.682c-.104.066-.237.12-.4.164a3.441 3.441 0 0 1-.481.094l-.514.066c-.308.041-.539.105-.692.193-.261.148-.392.383-.392.706Zm2.055-1.713c.195-.025.325-.106.391-.244a.738.738 0 0 0 .057-.325c0-.288-.104-.497-.311-.626-.205-.131-.498-.197-.882-.197-.443 0-.757.119-.942.357-.104.132-.171.328-.203.588h-.791c.015-.62.216-1.052.603-1.293.389-.245.84-.367 1.352-.367.594 0 1.076.113 1.447.338.368.226.551.578.551 1.054v2.903c0 .088.018.158.052.212.038.053.115.08.231.08.038 0 .08-.002.127-.005.047-.006.098-.014.151-.024v.626a2.36 2.36 0 0 1-.302.07 2.2 2.2 0 0 1-.282.015c-.292 0-.504-.104-.636-.31a1.178 1.178 0 0 1-.146-.466c-.173.225-.421.421-.745.588-.324.166-.68.249-1.07.249-.468 0-.851-.141-1.15-.423a1.425 1.425 0 0 1-.443-1.068c0-.468.147-.83.439-1.087.292-.257.675-.416 1.15-.475l1.352-.17ZM116.886 9.896h.806v.715c.239-.295.492-.507.759-.635.267-.129.564-.193.89-.193.717 0 1.2.25 1.452.748.138.273.207.663.207 1.172v3.232h-.862v-3.176c0-.307-.046-.555-.137-.743-.151-.314-.424-.47-.82-.47-.201 0-.366.02-.495.06a1.275 1.275 0 0 0-.612.414 1.261 1.261 0 0 0-.278.518 3.536 3.536 0 0 0-.062.757v2.64h-.848V9.896ZM17.96 24.157a9.446 9.446 0 0 0 11.89 0l-1.34-1.654a7.316 7.316 0 0 1-9.21 0l-1.34 1.654ZM19.404 20.513v-2.877h2.13v2.877h-2.13ZM26.012 17.637v2.876h2.13v-2.877h-2.13Z" fill="#fff"/><path fill-rule="evenodd" clip-rule="evenodd" d="M35 21.5C35 27.851 29.851 33 23.5 33S12 27.851 12 21.5 17.149 10 23.5 10 35 15.149 35 21.5Zm-2.13 0a9.37 9.37 0 1 1-18.74 0 9.37 9.37 0 0 1 18.74 0Z" fill="#fff"/><path d="M48.29 22.178c.99 0 1.798.263 2.425.79.632.52.949 1.388.949 2.601v6.516h-2.566V26.2c0-.509-.067-.9-.202-1.171-.246-.497-.715-.746-1.406-.746-.85 0-1.432.364-1.748 1.092-.164.385-.247.876-.247 1.474v5.237H43v-9.658h2.416v1.411c.323-.497.627-.855.914-1.074.516-.39 1.169-.586 1.96-.586ZM57.56 30.3c.733 0 1.295-.263 1.688-.79.392-.526.588-1.275.588-2.245 0-.97-.196-1.716-.588-2.237-.393-.527-.955-.79-1.688-.79-.732 0-1.297.263-1.695.79-.393.52-.59 1.266-.59 2.237 0 .97.197 1.719.59 2.246.398.526.963.79 1.695.79Zm4.903-3.035c0 1.42-.404 2.636-1.212 3.648-.808 1.006-2.036 1.51-3.682 1.51s-2.873-.504-3.681-1.51c-.809-1.012-1.213-2.228-1.213-3.648 0-1.397.404-2.607 1.213-3.631.808-1.024 2.035-1.536 3.681-1.536s2.873.512 3.682 1.536c.808 1.024 1.212 2.234 1.212 3.63ZM62.56 24.3v-1.802h1.336v-2.699h2.478v2.699h1.556V24.3h-1.556v5.113c0 .397.05.645.15.746.1.094.404.142.913.142h.238l.255-.018v1.89l-1.187.045c-1.183.042-1.991-.165-2.425-.621-.281-.29-.422-.737-.422-1.34V24.3h-1.335ZM77.602 22.196c1.26 0 2.244.458 2.952 1.376.715.917 1.072 2.1 1.072 3.55 0 1.504-.351 2.75-1.054 3.738-.703.988-1.684 1.483-2.944 1.483-.79 0-1.426-.16-1.906-.48-.287-.19-.598-.52-.932-.994v1.216H72.34V19.018h2.495v4.651c.316-.45.665-.793 1.046-1.03.45-.295 1.025-.443 1.722-.443Zm-.641 8.06c.644 0 1.145-.263 1.502-.79.358-.526.536-1.219.536-2.077 0-.686-.088-1.255-.263-1.704-.334-.853-.95-1.279-1.846-1.279-.908 0-1.531.418-1.871 1.252-.176.444-.264 1.018-.264 1.722 0 .829.182 1.515.545 2.06.363.544.917.816 1.66.816ZM83.094 33.94l.317.018a3.9 3.9 0 0 0 .703-.026c.222-.03.41-.098.562-.205.147-.1.281-.31.404-.63.13-.32.182-.515.159-.586L81.724 22.41h2.785l2.091 7.137 1.977-7.137h2.663l-3.286 9.516c-.633 1.835-1.134 2.971-1.503 3.41-.369.443-1.107.665-2.214.665-.223 0-.401-.003-.536-.009-.135 0-.337-.009-.606-.026V33.94ZM97.783 27.14h3.286l-1.617-5.148-1.669 5.148ZM97.95 19h3.058l4.586 13.085h-2.934l-.835-2.69h-4.771l-.897 2.69h-2.829L97.95 19ZM110.59 32.085h-2.688V19h2.688v13.085Z" fill="#fff"/><path d="M106.306 19H112v2.226h-5.694V19ZM106.306 29.862H112v2.226h-5.694v-2.226Z" fill="#fff"/></svg>